<?xml version="1.0" encoding="utf-8"?>
<!-- Generator: Adobe Illustrator 19.2.1, SVG Export Plug-In . SVG Version: 6.00 Build 0)  -->
<svg version="1.1" id="layer" xmlns="http://www.w3.org/2000/svg" xmlns:xlink="http://www.w3.org/1999/xlink" x="0px" y="0px"
	 viewBox="0 0 652 652" style="enable-background:new 0 0 652 652;" xml:space="preserve">
<style type="text/css">
	.st0{fill:#EE2435;}
</style>
<path class="st0" d="M128.8,290.3c10.5,0,25.8-2.2,25.8-14.7c0-1,0-1.9-0.3-2.9l-6.3-27.3c-1.5-6-2.7-8.7-13.3-14
	c-8.2-4.2-26-11.1-31.2-11.1c-4.9,0-6.4,6.4-12.2,6.4c-5.6,0-9.8-4.7-15.1-4.7c-5.1,0-8.4,3.5-10.9,10.5c0,0-7.1,20-8,22.9
	c-0.2,0.5-0.2,1.2-0.2,1.6C57.3,264.8,87.9,290.3,128.8,290.3 M156.3,280.7c1.5,6.9,1.5,7.6,1.5,8.5c0,11.8-13.3,18.3-30.7,18.3
	c-39.4,0-73.9-23.1-73.9-38.3c0-2.4,0.5-4.5,1.3-6.2c-14.2,0.7-32.5,3.3-32.5,19.4c0,26.5,62.8,59.2,112.6,59.2
	c38.1,0,47.8-17.3,47.8-30.9C182.2,300.1,173,288,156.3,280.7"/>
<path d="M156.3,280.7c1.5,6.9,1.5,7.6,1.5,8.5c0,11.8-13.3,18.3-30.7,18.3c-39.4,0-73.9-23.1-73.9-38.3c0-2.4,0.5-4.5,1.3-6.2
	l3.1-7.6c-0.2,0.5-0.2,1.2-0.2,1.6c0,7.8,30.6,33.2,71.6,33.2c10.5,0,25.8-2.2,25.8-14.7c0-1,0-1.9-0.3-2.9L156.3,280.7z"/>
<path d="M242.1,404.6c-17.9,0-31.9-13.9-31.9-31.6c0-17.7,14-31.6,31.9-31.6c17.9,0,32,13.9,32,31.6
	C274.1,390.7,260,404.6,242.1,404.6 M242.1,349.9c-12.7,0-22.5,10-22.5,23.1c0,13.1,9.8,23.1,22.5,23.1c12.8,0,22.6-10.1,22.6-23.1
	C264.7,359.9,254.9,349.9,242.1,349.9 M282.8,359.1h8.7v4.3c3.7-3.2,8.4-5,13.7-5c12.6,0,22.5,10.1,22.5,23c0,13-9.9,23-22.7,23
	c-4.9,0-9.6-1.6-13.4-4.4v21.8h-8.8V359.1z M291.6,371.3v20.2c2.8,3.2,7.4,5.3,12.4,5.3c8.6,0,15.1-6.6,15.1-15.3
	c0-8.8-6.6-15.4-15.1-15.4C299,366,294.5,367.9,291.6,371.3 M357.6,404.5c-13.1,0-23.4-10.1-23.4-23.1c0-12.9,9.8-23,22.3-23
	c12.3,0,21.6,10.2,21.6,23.3v2.5h-35.2c1.2,7.4,7.4,12.8,15.1,12.8c4.4,0,8.5-1.5,11.3-3.9l5.6,5.5
	C369.7,402.6,364.2,404.5,357.6,404.5 M343,377.7h26.5c-1.3-6.8-6.6-11.9-13.1-11.9C349.6,365.7,344.3,370.6,343,377.7 M386.4,403.7
	h8.8v-32.1c2.5-3.8,6.3-5.8,11-5.8c6.7,0,11,4.3,11,11.3v26.6h8.8v-28c0-10.3-7.2-17.4-17.4-17.4c-5.3,0-9.9,1.8-13.4,5.3v-4.5h-8.8
	V403.7z M431.6,393.5c7,7.1,16.5,11,26.3,11c14.6,0,24.4-7.5,24.4-18.8c0-9.6-5.9-14.9-18.8-17l-9.9-1.6c-7.9-1.3-11-3.7-11-8.7
	c0-5.4,5.3-9.1,13.3-9.1c6.8,0,13.4,2.5,20.1,7.5l5.1-7c-6.9-5.3-15.9-8.3-24.7-8.3c-13.7,0-22.6,6.9-22.6,17.6
	c0,8.9,5.5,14.1,16.7,15.9l10.3,1.7c8.9,1.5,12.4,4.2,12.4,9.6c0,6-6,10.3-14.9,10.3c-7.6,0-14.5-3.2-21.1-9.6L431.6,393.5z
	 M489.8,403.7h8.8v-32.1c2.5-3.8,6.3-5.8,11-5.8c6.7,0,11,4.3,11,11.3v26.6h8.8v-28c0-10.3-7.2-17.4-17.4-17.4
	c-5.3,0-9.9,1.8-13.4,5.3v-23.1l-8.8,1.9V403.7z M538.5,346.5c0-3,2.4-5.4,5.3-5.4c3,0,5.4,2.5,5.4,5.4c0,3-2.5,5.4-5.4,5.4
	C540.9,351.9,538.5,349.4,538.5,346.5 M548.3,403.7h-8.8v-44.6h8.8V403.7z M554.9,359.1v7.4h10.3v37.2h8.8v-37.2h12.7v-7.4H574v-6.6
	c0-4.7,2.4-6.9,7.2-6.9c2,0,3.4,0.2,5.5,0.8v-7.6c-1.8-0.5-3.9-0.8-6.3-0.8c-9.8,0-15.2,5.1-15.2,14.4v6.7H554.9z M600,392.6
	c0,7.7,4.6,11.8,13.3,11.8c2.6,0,6-0.5,8.3-1.3v-7.4c-2.2,0.8-3.9,1-6.4,1c-4.7,0-6.6-1.7-6.6-6.2v-24.2h13.1v-7.4h-13.1v-13.5
	l-8.7,2.1v11.4h-9.5v7.4h9.5V392.6z M509.9,298.2c0,10,6,14.9,17,14.9c2.7,0,7.3-0.6,10-1.4V300c-2.4,0.7-4.2,1-6.5,1
	c-4.5,0-6.2-1.4-6.2-5.7v-17.8h13.1v-12h-13.1v-15.2l-14.4,3.1v12.1h-9.5v12h9.5V298.2z M465.3,298.4c0-3.1,3.1-4.6,7.8-4.6
	c3.1,0,5.9,0.4,8.5,1.1v6c-2.7,1.5-5.8,2.2-8.9,2.2C468,303.1,465.3,301.3,465.3,298.4 M469.7,313.2c5.1,0,9.1-1.1,12.9-3.6v2.8
	h14.2v-30c0-11.4-7.7-17.7-20.6-17.7c-7.2,0-14.3,1.7-21.9,5.1l5.1,10.5c5.5-2.3,10.1-3.7,14.2-3.7c5.9,0,9,2.3,9,7v2.3
	c-3.4-0.9-6.9-1.3-10.6-1.3c-12.1,0-19.3,5.1-19.3,14.1C452.7,306.9,459.2,313.2,469.7,313.2 M391.8,312.4H407v-24.3h25.5v24.3h15.2
	v-62h-15.2v23.8H407v-23.8h-15.2V312.4z M333.7,288.9c0-6.7,5.3-11.9,12.3-11.9c3.9,0,7.4,1.3,9.9,3.6v16.4
	c-2.6,2.5-5.9,3.7-9.9,3.7C339.1,300.8,333.7,295.7,333.7,288.9 M356.1,312.4h14.2v-65.1l-14.4,3.1V268c-3.5-2-7.6-3.1-12-3.1
	c-13.6,0-24.4,10.5-24.4,24c0,13.5,10.5,24.1,23.9,24.1c4.6,0,9-1.4,12.6-4.1V312.4z M291.1,276.4c4.5,0,8.3,2.9,9.8,7.4h-19.6
	C282.8,279.2,286.3,276.4,291.1,276.4 M266.9,289c0,13.6,11.2,24.3,25.5,24.3c7.9,0,13.6-2.1,19.6-7.1l-9.5-8.4
	c-2.2,2.3-5.5,3.5-9.4,3.5c-5.3,0-9.7-2.9-11.5-7.4H315v-3.5c0-14.9-10-25.6-23.7-25.6C277.6,264.8,266.9,275.4,266.9,289
	 M242.2,263.4c5.1,0,7.9,3.2,7.9,7c0,3.8-2.8,7-7.9,7h-15.1v-14H242.2z M211.9,312.4h15.2v-22.6h11.6l11.7,22.6h17l-13.6-24.8
	c7.4-3.2,11.7-9.8,11.7-17.5c0-11.2-8.8-19.8-21.9-19.8h-31.7V312.4z"/>
</svg>
